HIERARCHY
ROOT Hips
{
	OFFSET 0.00 0.00 0.00
	CHANNELS 6 Xposition Yposition Zposition Yrotation Xrotation Zrotation
	JOINT Spine
	{
		OFFSET	0.0000	9.2263	1.5771
		CHANNELS 3 Xrotation Yrotation Zrotation
		JOINT Spine1
		{
			OFFSET	0.0000	16.2540	-0.1656
			CHANNELS 3 Xrotation Yrotation Zrotation
			JOINT Spine2
			{
				OFFSET	0.0000	13.6396	-1.2923
				CHANNELS 3 Xrotation Yrotation Zrotation
				JOINT Neck
				{
					OFFSET	0.0000	13.8774	-4.3542
					CHANNELS 3 Xrotation Yrotation Zrotation
					JOINT Neck1
					{
						OFFSET	0.0000	4.3400	0.9269
						CHANNELS 3 Xrotation Yrotation Zrotation
						JOINT Head
						{
							OFFSET	0.0000	4.0266	0.8585
							CHANNELS 3 Xrotation Yrotation Zrotation
							End Site
							{
								OFFSET 0.0000 23.0297 0.1231
							}
						}
					}
				}
				JOINT LeftShoulder
				{
					OFFSET	6.1442	10.1870	-3.7932
					CHANNELS 3 Zrotation Xrotation Yrotation
					JOINT LeftArm
					{
						OFFSET	12.3191	-1.1130	-1.7935
						CHANNELS 3 Zrotation Xrotation Yrotation
						JOINT LeftForeArm
						{
							OFFSET	27.6870	0.0000	0.0000
							CHANNELS 3 Xrotation Zrotation Yrotation
							JOINT LeftHand
							{
								OFFSET	27.8738	0.0000	0.0000
								CHANNELS 3 Zrotation Yrotation Xrotation
								JOINT LeftHandThumb1
								{
									OFFSET	2.3785	-1.0029	2.6209
									CHANNELS 3 Zrotation Xrotation Yrotation
									JOINT LeftHandThumb2
									{
										OFFSET	3.3624	-1.0029	2.8398
										CHANNELS 3 Zrotation Xrotation Yrotation
										JOINT LeftHandThumb3
										{
											OFFSET	4.5018	-1.3445	2.1783
											CHANNELS 3 Zrotation Xrotation Yrotation
											End Site
											{
												OFFSET 2.6000 -1.0000 1.0000
											}
										}
									}
								}
								JOINT LeftHandMiddle1
								{
									OFFSET	10.4639	0.6148	0.4298
									CHANNELS 3 Zrotation Xrotation Yrotation
									JOINT LeftHandMiddle2
									{
										OFFSET	5.7921	0.0000	0.0000
										CHANNELS 3 Zrotation Xrotation Yrotation
										JOINT LeftHandMiddle3
										{
											OFFSET	3.7132	0.0000	0.0000
											CHANNELS 3 Zrotation Xrotation Yrotation
											End Site
											{
												OFFSET 2.3000 0.0000 0.0000
											}
										}
									}
								}
								JOINT LeftHandIndex1
								{
									OFFSET	10.3945	0.6148	2.7055
									CHANNELS 3 Zrotation Xrotation Yrotation
									JOINT LeftHandIndex2
									{
										OFFSET	5.5493	0.0000	0.0000
										CHANNELS 3 Zrotation Xrotation Yrotation
										JOINT LeftHandIndex3
										{
											OFFSET	3.3911	0.0000	0.0000
											CHANNELS 3 Zrotation Xrotation Yrotation
											End Site
											{
												OFFSET 2.5000 0.0000 0.0000
											}
										}
									}
								}
								JOINT LeftHandRing1
								{
									OFFSET	10.3252	0.3211	-1.8755
									CHANNELS 3 Zrotation Xrotation Yrotation
									JOINT LeftHandRing2
									{
										OFFSET	5.4452	0.0000	0.0000
										CHANNELS 3 Zrotation Xrotation Yrotation
										JOINT LeftHandRing3
										{
											OFFSET	3.7132	0.0000	0.0000
											CHANNELS 3 Zrotation Xrotation Yrotation
											End Site
											{
												OFFSET 2.0000 0.0000 0.0000
											}
										}
									}
								}
								JOINT LeftHandPinky1
								{
									OFFSET	10.0130	-0.0783	-3.9671
									CHANNELS 3 Zrotation Xrotation Yrotation
									JOINT LeftHandPinky2
									{
										OFFSET	3.6763	0.0000	0.0000
										CHANNELS 3 Zrotation Xrotation Yrotation
										JOINT LeftHandPinky3
										{
											OFFSET	2.8113	0.0000	0.0000
											CHANNELS 3 Zrotation Xrotation Yrotation
											End Site
											{
												OFFSET 2.9000 0.0000 0.0000
											}
										}
									}
								}
							}
						}
					}
				}
				JOINT RightShoulder
				{
					OFFSET	-6.1402	10.1870	-3.7932
					CHANNELS 3 Zrotation Xrotation Yrotation
					JOINT RightArm
					{
						OFFSET	-12.3231	-1.1130	-1.7935
						CHANNELS 3 Zrotation Xrotation Yrotation
						JOINT RightForeArm
						{
							OFFSET	-27.6870	0.0000	0.0000
							CHANNELS 3 Xrotation Zrotation Yrotation
							JOINT RightHand
							{
								OFFSET	-27.8738	0.0000	0.0000
								CHANNELS 3 Zrotation Yrotation Xrotation
								JOINT RightHandThumb1
								{
									OFFSET	-2.5178	-0.9367	2.5137
									CHANNELS 3 Zrotation Xrotation Yrotation
									JOINT RightHandThumb2
									{
										OFFSET	-3.2638	-1.0870	2.9669
										CHANNELS 3 Zrotation Xrotation Yrotation
										JOINT RightHandThumb3
										{
											OFFSET	-4.4165	-1.3703	2.1350
											CHANNELS 3 Zrotation Xrotation Yrotation
											End Site
											{
												OFFSET -2.6000 -1.0000 1.0000
											}
										}
									}
								}
								JOINT RightHandIndex1
								{
									OFFSET	-10.4665	0.4896	2.7120
									CHANNELS 3 Zrotation Xrotation Yrotation
									JOINT RightHandIndex2
									{
										OFFSET	-5.3768	0.0000	0.0000
										CHANNELS 3 Zrotation Xrotation Yrotation
										JOINT RightHandIndex3
										{
											OFFSET	-3.3855	0.0000	0.0000
											CHANNELS 3 Zrotation Xrotation Yrotation
											End Site
											{
												OFFSET -2.6000 0.0000 0.0000
											}
										}
									}
								}
								JOINT RightHandMiddle1
								{
									OFFSET	-10.7596	0.4896	0.4278
									CHANNELS 3 Zrotation Xrotation Yrotation
									JOINT RightHandMiddle2
									{
										OFFSET	-5.6168	0.0000	0.0000
										CHANNELS 3 Zrotation Xrotation Yrotation
										JOINT RightHandMiddle3
										{
											OFFSET	-3.7364	0.0000	0.0000
											CHANNELS 3 Zrotation Xrotation Yrotation
											End Site
											{
												OFFSET -2.3000 0.0000 0.0000
											}
										}
									}
								}
								JOINT RightHandRing1
								{
									OFFSET	-10.4702	0.3879	-1.9363
									CHANNELS 3 Zrotation Xrotation Yrotation
									JOINT RightHandRing2
									{
										OFFSET	-5.4013	0.0000	0.0000
										CHANNELS 3 Zrotation Xrotation Yrotation
										JOINT RightHandRing3
										{
											OFFSET	-3.3916	0.0000	0.0000
											CHANNELS 3 Zrotation Xrotation Yrotation
											End Site
											{
												OFFSET -2.2000 0.0000 0.0000
											}
										}
									}
								}
								JOINT RightHandPinky1
								{
									OFFSET	-9.9715	-0.1191	-3.9540
									CHANNELS 3 Zrotation Xrotation Yrotation
									JOINT RightHandPinky2
									{
										OFFSET	-3.6528	0.0000	0.0000
										CHANNELS 3 Zrotation Xrotation Yrotation
										JOINT RightHandPinky3
										{
											OFFSET	-2.7820	0.0000	0.0000
											CHANNELS 3 Zrotation Xrotation Yrotation
											End Site
											{
												OFFSET -2.9000 0.0000 0.0000
											}
										}
									}
								}
							}
						}
					}
				}
			}
		}
	}
	JOINT LeftUpLeg
	{
		OFFSET	9.6338	-3.2733	0.0000
		CHANNELS 3 Xrotation Yrotation Zrotation
		JOINT LeftLeg
		{
			OFFSET	0.0000	-41.7300	-1.7300
			CHANNELS 3 Xrotation Yrotation Zrotation
			JOINT LeftFoot
			{
				OFFSET	0.0126	-39.1900	-0.8477
				CHANNELS 3 Xrotation Yrotation Zrotation
				JOINT LeftToeBase
				{
					OFFSET	-0.1833	-12.1931	8.2823
					CHANNELS 3 Xrotation Yrotation Zrotation
					End Site
					{
						OFFSET 0.0000 0.0000 10.1681
					}
				}
			}
		}
	}
	JOINT RightUpLeg
	{
		OFFSET	-9.6338	-3.2733	0.0000
		CHANNELS 3 Xrotation Yrotation Zrotation
		JOINT RightLeg
		{
			OFFSET	0.0000	-41.7300	-1.7300
			CHANNELS 3 Xrotation Yrotation Zrotation
			JOINT RightFoot
			{
				OFFSET	0.0126	-39.1900	-0.8477
				CHANNELS 3 Xrotation Yrotation Zrotation
				JOINT RightToeBase
				{
					OFFSET	-0.1833	-12.1931	8.2823
					CHANNELS 3 Xrotation Yrotation Zrotation
					End Site
					{
						OFFSET 0.0032 0.0000 10.1681
					}
				}
			}
		}
	}
}
MOTION
Frames: 4
Frame Time: 0.0333333
0.0406 94.5711 0.3232 -0.1059 -1.5212 -1.0965 0.9680 -0.1292 0.0475 1.0209 -2.4783 0.1462 1.0158 -2.4747 0.1894 -2.7501 0.8803 -1.4275 -0.0000 0.0000 -0.0000 5.5776 -1.5242 3.6944 -0.3946 -0.4078 7.3787 -69.5006 23.8952 -6.2758 -0.1468 -0.0383 -29.2946 -14.6676 18.0982 10.3070 -1.5752 -7.8001 18.1838 1.4125 3.1287 1.2449 6.3642 -3.3866 -1.4215 -23.9855 0.8986 -2.6999 -24.0580 -0.0882 0.4139 -14.9269 -0.0343 0.2615 -17.7500 0.7063 -3.2941 -35.6680 -0.1904 0.5920 -17.4483 -0.0467 0.3044 -30.0837 1.0569 -3.8595 -17.3723 -0.0463 0.3031 -11.0807 -0.0189 0.1951 -43.8270 1.3415 1.3156 -21.2749 1.4124 -3.4400 -7.7147 -0.0092 0.1363 -3.7717 0.8335 2.4784 71.9483 23.7020 10.0443 -0.1366 0.0329 27.0956 3.9967 -17.0952 1.7201 3.3619 10.7682 -32.3889 0.1361 1.2991 15.7335 -6.2982 -4.7878 5.0727 8.8411 0.3802 -2.0136 38.7543 -0.5030 -1.4301 8.0808 -0.0227 -0.3211 18.3383 0.6483 -3.6264 29.3609 -0.2935 -1.1201 5.3884 -1.6022 -0.2232 27.1956 0.7937 -0.8886 22.1361 -0.1684 -0.8608 8.4565 -1.8606 -0.3462 35.6143 0.9003 -3.2136 17.3603 -0.1041 -0.6816 7.8118 -0.0212 -0.3105 -11.0928 3.9592 2.8629 26.4148 9.3494 0.6579 -13.4312 2.7398 -3.7087 -0.4642 0.0000 0.0000 -11.6391 -13.1243 -6.9131 21.7127 -4.2044 -1.2508 -7.7235 -4.4413 6.7130 -0.0000 -0.0000 0.0000 
0.2135 94.5339 0.2884 -0.1213 -1.5441 -1.1938 1.0055 -0.1144 0.0373 1.0907 -2.4587 0.1336 1.0862 -2.4551 0.1782 -2.7196 0.8587 -1.3782 -0.0000 0.0000 -0.0000 5.5344 -1.5393 3.7398 -0.3339 -0.3901 7.2394 -69.5331 23.9961 -6.3732 -0.1467 -0.0383 -29.2726 -14.6870 18.1016 10.3669 -1.5662 -7.8021 18.1918 1.4116 3.1170 1.2377 6.3626 -3.3866 -1.4227 -24.1015 0.9018 -2.7195 -23.9275 -0.0872 0.4118 -14.8606 -0.0340 0.2604 -17.8589 0.7098 -3.2835 -35.4758 -0.1885 0.5892 -17.3535 -0.0462 0.3028 -30.1648 1.0587 -3.9178 -17.3172 -0.0460 0.3022 -11.0504 -0.0188 0.1946 -43.9615 1.3431 1.2290 -21.2749 1.4124 -3.4401 -7.7159 -0.0092 0.1363 -3.6260 0.8707 2.7239 71.8124 23.7576 10.1166 -0.1369 0.0331 27.1555 3.9315 -17.0528 1.7068 3.2378 10.7635 -32.3974 0.1736 1.2539 15.7788 -6.2939 -4.7865 5.0733 8.8896 0.3813 -1.9631 38.7367 -0.5026 -1.4296 8.0289 -0.0224 -0.3191 18.5137 0.6517 -3.5647 29.2843 -0.2920 -1.1175 5.3011 -1.6198 -0.2198 27.3071 0.7948 -0.8000 22.0576 -0.1672 -0.8579 8.4003 -1.8701 -0.3440 35.8084 0.9008 -3.1107 17.3351 -0.1038 -0.6807 7.7060 -0.0206 -0.3063 -11.2677 4.0011 2.8881 26.7885 9.2878 0.6080 -13.6373 2.7601 -3.5783 -0.4458 0.0000 0.0000 -11.6824 -13.2217 -6.9377 21.7455 -4.2350 -1.3074 -7.6681 -4.3116 6.8484 -0.0000 -0.0000 0.0000 
0.3809 94.5045 0.2773 -0.1258 -1.5707 -1.2828 1.0377 -0.0994 0.0256 1.1519 -2.4346 0.1183 1.1481 -2.4310 0.1643 -2.6660 0.8401 -1.3351 -0.0000 0.0000 -0.0000 5.5367 -1.5521 3.7842 -0.2948 -0.3810 7.1779 -69.5372 24.0220 -6.4212 -0.1466 -0.0382 -29.2432 -14.6811 18.1135 10.4469 -1.5582 -7.8035 18.2005 1.4113 3.1038 1.2297 6.3611 -3.3881 -1.4275 -24.2301 0.9054 -2.7362 -23.8078 -0.0864 0.4098 -14.7992 -0.0337 0.2593 -17.9662 0.7134 -3.2698 -35.2994 -0.1867 0.5867 -17.2657 -0.0457 0.3013 -30.2654 1.0610 -3.9737 -17.2673 -0.0457 0.3013 -11.0221 -0.0187 0.1941 -44.1405 1.3453 1.1452 -21.2749 1.4124 -3.4400 -7.7166 -0.0092 0.1363 -3.5544 0.8919 2.8704 71.7912 23.8203 10.1551 -0.1371 0.0331 27.1878 3.9187 -16.9952 1.5524 3.1574 10.7661 -32.4098 0.2029 1.2191 15.8139 -6.2915 -4.7863 5.0749 9.0046 0.3848 -1.9578 38.6810 -0.5012 -1.4278 7.9379 -0.0219 -0.3155 18.5236 0.6517 -3.5359 29.3136 -0.2925 -1.1185 5.2215 -1.6106 -0.2166 27.2690 0.7939 -0.7449 22.1459 -0.1685 -0.8612 8.3671 -1.8539 -0.3426 35.8103 0.9003 -3.0386 17.4240 -0.1048 -0.6841 7.6579 -0.0204 -0.3044 -11.3885 4.0407 2.9097 27.0931 9.2070 0.5492 -13.8234 2.7884 -3.4403 -0.4395 0.0000 -0.0000 -11.6774 -13.3112 -6.9587 21.7279 -4.2863 -1.3640 -7.6052 -4.1831 6.9874 -0.0000 -0.0000 -0.0000 
0.5303 94.4981 0.3319 -0.1021 -1.6153 -1.3426 1.0571 -0.0849 0.0094 1.1926 -2.3999 0.0947 1.1897 -2.3964 0.1419 -2.5494 0.8336 -1.3197 -0.0000 0.0000 -0.0000 5.6451 -1.5584 3.8262 -0.2904 -0.3780 7.1604 -69.5018 24.0044 -6.4381 -0.1464 -0.0381 -29.2080 -14.6605 18.1383 10.5294 -1.5526 -7.8039 18.2090 1.4122 3.0873 1.2202 6.3593 -3.3934 -1.4417 -24.3418 0.9085 -2.7504 -23.7533 -0.0860 0.4089 -14.7712 -0.0336 0.2588 -18.0160 0.7150 -3.2605 -35.2191 -0.1858 0.5855 -17.2258 -0.0455 0.3006 -30.3872 1.0638 -4.0184 -17.2458 -0.0456 0.3010 -11.0085 -0.0187 0.1938 -44.3924 1.3487 1.0810 -21.2749 1.4124 -3.4400 -7.7165 -0.0092 0.1363 -3.5242 0.9042 2.9569 71.8395 23.9017 10.1670 -0.1372 0.0332 27.2121 3.9389 -16.9318 1.3184 3.2162 10.7350 -32.3871 0.1739 1.2800 15.7629 -6.2954 -4.7768 5.0480 9.2942 0.3946 -2.0763 38.5180 -0.4971 -1.4228 7.7455 -0.0208 -0.3079 17.9768 0.6397 -3.5908 29.6794 -0.2997 -1.1312 5.1816 -1.5173 -0.2145 26.7480 0.7863 -0.7738 22.7535 -0.1778 -0.8836 8.4096 -1.7557 -0.3437 35.1886 0.8961 -3.0402 17.8723 -0.1102 -0.7011 7.7912 -0.0211 -0.3097 -11.3495 4.0461 2.9134 27.2083 9.0956 0.4588 -13.9540 2.8432 -3.2860 -0.4544 0.0000 0.0000 -11.5291 -13.3675 -6.9714 21.5689 -4.3880 -1.4195 -7.5215 -4.0710 7.1343 -0.0000 -0.0000 -0.0000 
